<svg width="745" height="144" viewBox="0 0 745 144" fill="none" xmlns="http://www.w3.org/2000/svg">
<path d="M63.0363 74.6406L63.0363 142.74L77.8684 142.74V74.6406L63.0363 74.6406Z" fill="#F1F1F1"/>
<path d="M0 74.6406L1.23733e-06 88.9875L77.8684 88.794L77.8684 74.6406L0 74.6406Z" fill="#F1F1F1"/>
<path d="M77.8099 68.0996L77.8099 0.000166573L62.9778 0.000147424L62.9778 68.0996L77.8099 68.0996Z" fill="#F1F1F1"/>
<path d="M140.846 68.0996L140.846 53.7528L62.9778 53.9462L62.9778 68.0996L140.846 68.0996Z" fill="#F1F1F1"/>
<path d="M169.572 1.37203H201.952C208.11 1.37203 212.958 2.89651 216.495 5.94548C220.093 8.99444 221.892 13.3545 221.892 19.0255C221.892 21.7086 221.282 24.2088 220.062 26.526C218.843 28.8432 217.105 30.6726 214.849 32.0141C217.959 33.2337 220.245 35.0021 221.709 37.3193C223.172 39.5755 223.904 42.533 223.904 46.1918C223.904 50.0945 222.989 53.5093 221.16 56.4363C219.331 59.3023 216.861 61.4976 213.751 63.0221C210.702 64.5466 207.287 65.3088 203.507 65.3088H169.572V1.37203ZM198.384 26.7089C203.141 26.7089 205.519 24.4832 205.519 20.0317C205.519 17.5315 204.909 15.8241 203.689 14.9094C202.47 13.9338 200.61 13.4459 198.11 13.4459H185.762V26.7089H198.384ZM199.39 53.2349C202.134 53.2349 204.177 52.7166 205.519 51.6799C206.86 50.6433 207.531 48.8139 207.531 46.1918C207.531 43.5697 206.83 41.6793 205.427 40.5207C204.025 39.3011 201.891 38.6913 199.025 38.6913H185.762V53.2349H199.39Z" fill="#F1F1F1"/>
<path d="M258.942 66.6808C249.308 66.6808 242.051 64.1197 237.173 58.9974C232.294 53.8142 229.855 46.9845 229.855 38.5084V1.37203H246.045V38.6913C246.045 42.9599 247.173 46.1918 249.43 48.3871C251.747 50.5823 254.918 51.6799 258.942 51.6799C262.967 51.6799 266.107 50.5823 268.364 48.3871C270.62 46.1918 271.748 42.9599 271.748 38.6913V1.37203H287.938V38.5084C287.938 47.0455 285.499 53.8752 280.621 58.9974C275.803 64.1197 268.577 66.6808 258.942 66.6808Z" fill="#F1F1F1"/>
<path d="M315.639 66.6808C311.614 66.6808 307.62 66.2845 303.656 65.4917C299.693 64.76 296.43 63.7233 293.869 62.3818V47.8382C297.162 49.5457 300.577 50.8262 304.114 51.6799C307.712 52.5336 311.126 52.9605 314.358 52.9605C317.346 52.9605 319.602 52.5032 321.127 51.5885C322.651 50.6738 323.414 49.3627 323.414 47.6553C323.414 46.3747 322.987 45.2771 322.133 44.3624C321.34 43.3868 320.151 42.5026 318.566 41.7098C316.98 40.9171 314.511 39.8195 311.157 38.4169C305.242 35.9168 300.943 33.1422 298.26 30.0933C295.577 27.0443 294.235 23.2941 294.235 18.8426C294.235 15.1838 295.241 11.9214 297.254 9.05542C299.327 6.1894 302.193 3.96365 305.852 2.37819C309.51 0.792731 313.718 0 318.474 0C322.377 0 325.853 0.304896 328.902 0.914688C331.951 1.52448 334.878 2.50015 337.683 3.84169V18.0194C332.317 15.2143 326.92 13.8118 321.493 13.8118C318.566 13.8118 316.218 14.2996 314.45 15.2753C312.742 16.19 311.889 17.5315 311.889 19.2999C311.889 21.0683 312.773 22.5014 314.541 23.599C316.31 24.6966 319.572 26.1906 324.328 28.081C328.658 29.8494 332.012 31.5873 334.39 33.2947C336.829 35.0021 338.598 36.9839 339.695 39.2402C340.793 41.4964 341.342 44.3624 341.342 47.8382C341.342 53.7532 339.177 58.3877 334.847 61.7415C330.579 65.0344 324.176 66.6808 315.639 66.6808Z" fill="#F1F1F1"/>
<path d="M347.775 1.37203H363.965V65.3088H347.775V1.37203Z" fill="#F1F1F1"/>
<path d="M372.161 1.37203H388.168L411.675 39.4231V1.37203H427.865V65.3088H411.95L388.351 27.1663V65.3088H372.161V1.37203Z" fill="#F1F1F1"/>
<path d="M436.118 1.37203H481.486V15.0009H452.308V26.9833H473.62V39.6975H452.308V51.6799H481.486V65.3088H436.118V1.37203Z" fill="#F1F1F1"/>
<path d="M507.866 66.6808C503.842 66.6808 499.848 66.2845 495.884 65.4917C491.92 64.76 488.658 63.7233 486.097 62.3818V47.8382C489.39 49.5457 492.805 50.8262 496.341 51.6799C499.939 52.5336 503.354 52.9605 506.586 52.9605C509.574 52.9605 511.83 52.5032 513.355 51.5885C514.879 50.6738 515.641 49.3627 515.641 47.6553C515.641 46.3747 515.214 45.2771 514.361 44.3624C513.568 43.3868 512.379 42.5026 510.793 41.7098C509.208 40.9171 506.738 39.8195 503.384 38.4169C497.47 35.9168 493.17 33.1422 490.487 30.0933C487.804 27.0443 486.463 23.2941 486.463 18.8426C486.463 15.1838 487.469 11.9214 489.481 9.05542C491.555 6.1894 494.421 3.96365 498.079 2.37819C501.738 0.792731 505.946 0 510.702 0C514.605 0 518.081 0.304896 521.129 0.914688C524.178 1.52448 527.105 2.50015 529.91 3.84169V18.0194C524.544 15.2143 519.148 13.8118 513.72 13.8118C510.793 13.8118 508.446 14.2996 506.677 15.2753C504.97 16.19 504.116 17.5315 504.116 19.2999C504.116 21.0683 505 22.5014 506.769 23.599C508.537 24.6966 511.8 26.1906 516.556 28.081C520.886 29.8494 524.239 31.5873 526.618 33.2947C529.057 35.0021 530.825 36.9839 531.923 39.2402C533.02 41.4964 533.569 44.3624 533.569 47.8382C533.569 53.7532 531.404 58.3877 527.075 61.7415C522.806 65.0344 516.404 66.6808 507.866 66.6808Z" fill="#F1F1F1"/>
<path d="M557.621 66.6808C553.596 66.6808 549.602 66.2845 545.638 65.4917C541.674 64.76 538.412 63.7233 535.851 62.3818V47.8382C539.144 49.5457 542.559 50.8262 546.095 51.6799C549.693 52.5336 553.108 52.9605 556.34 52.9605C559.328 52.9605 561.584 52.5032 563.109 51.5885C564.633 50.6738 565.395 49.3627 565.395 47.6553C565.395 46.3747 564.969 45.2771 564.115 44.3624C563.322 43.3868 562.133 42.5026 560.548 41.7098C558.962 40.9171 556.492 39.8195 553.139 38.4169C547.224 35.9168 542.925 33.1422 540.241 30.0933C537.558 27.0443 536.217 23.2941 536.217 18.8426C536.217 15.1838 537.223 11.9214 539.235 9.05542C541.309 6.1894 544.175 3.96365 547.833 2.37819C551.492 0.792731 555.7 0 560.456 0C564.359 0 567.835 0.304896 570.884 0.914688C573.932 1.52448 576.859 2.50015 579.665 3.84169V18.0194C574.298 15.2143 568.902 13.8118 563.475 13.8118C560.548 13.8118 558.2 14.2996 556.431 15.2753C554.724 16.19 553.87 17.5315 553.87 19.2999C553.87 21.0683 554.755 22.5014 556.523 23.599C558.291 24.6966 561.554 26.1906 566.31 28.081C570.64 29.8494 573.993 31.5873 576.372 33.2947C578.811 35.0021 580.579 36.9839 581.677 39.2402C582.775 41.4964 583.323 44.3624 583.323 47.8382C583.323 53.7532 581.159 58.3877 576.829 61.7415C572.56 65.0344 566.158 66.6808 557.621 66.6808Z" fill="#F1F1F1"/>
<path d="M620.842 1.37203H666.211V15.0009H637.032V26.9833H658.344V39.6975H637.032V65.3088H620.842V1.37203Z" fill="#F1F1F1"/>
<path d="M670.775 1.37203H686.965V65.3088H670.775V1.37203Z" fill="#F1F1F1"/>
<path d="M709.978 15.0009H691.959V1.37203H744.279V15.0009H726.168V65.3088H709.978V15.0009Z" fill="#F1F1F1"/>
<path d="M202.592 143.047C195.64 143.047 189.512 141.706 184.207 139.023C178.962 136.339 174.907 132.498 172.041 127.497C169.175 122.436 167.742 116.521 167.742 109.753C167.742 102.984 169.175 97.0993 172.041 92.099C174.907 87.0377 178.962 83.1656 184.207 80.4825C189.512 77.7384 195.64 76.3664 202.592 76.3664C207.165 76.3664 211.251 76.8237 214.849 77.7384C218.446 78.6531 221.77 80.0861 224.819 82.0374V97.4042C222.136 95.2699 219.087 93.715 215.672 92.7393C212.318 91.7636 208.446 91.2758 204.055 91.2758C197.774 91.2758 192.927 92.9222 189.512 96.2151C186.097 99.447 184.39 103.959 184.39 109.753C184.39 115.546 186.097 120.088 189.512 123.381C192.988 126.674 197.835 128.321 204.055 128.321C208.446 128.321 212.379 127.802 215.855 126.766C219.331 125.729 222.563 124.083 225.551 121.826V137.102C219.758 141.065 212.105 143.047 202.592 143.047Z" fill="#F1F1F1"/>
<path d="M262.161 143.047C255.697 143.047 249.843 141.645 244.599 138.84C239.416 136.035 235.3 132.132 232.251 127.132C229.263 122.07 227.769 116.277 227.769 109.753C227.769 103.228 229.263 97.4347 232.251 92.3734C235.3 87.3121 239.416 83.379 244.599 80.5739C249.843 77.7689 255.697 76.3664 262.161 76.3664C268.564 76.3664 274.357 77.7689 279.54 80.5739C284.784 83.379 288.9 87.3121 291.888 92.3734C294.876 97.4347 296.37 103.228 296.37 109.753C296.37 116.277 294.876 122.07 291.888 127.132C288.9 132.132 284.784 136.035 279.54 138.84C274.357 141.645 268.564 143.047 262.161 143.047ZM262.161 127.863C265.393 127.863 268.35 127.132 271.033 125.668C273.717 124.205 275.851 122.101 277.436 119.357C279.022 116.613 279.814 113.411 279.814 109.753C279.814 106.094 279.022 102.923 277.436 100.24C275.912 97.4957 273.808 95.3919 271.125 93.9284C268.442 92.4039 265.454 91.6417 262.161 91.6417C258.807 91.6417 255.789 92.4039 253.106 93.9284C250.422 95.3919 248.288 97.4957 246.703 100.24C245.178 102.923 244.416 106.094 244.416 109.753C244.416 113.411 245.178 116.613 246.703 119.357C248.288 122.101 250.422 124.205 253.106 125.668C255.85 127.132 258.868 127.863 262.161 127.863Z" fill="#F1F1F1"/>
<path d="M302.755 77.7384H318.762L342.27 115.789V77.7384H358.46V141.675H342.544L318.945 103.533V141.675H302.755V77.7384Z" fill="#F1F1F1"/>
<path d="M386.652 143.047C382.628 143.047 378.634 142.651 374.67 141.858C370.706 141.126 367.444 140.09 364.883 138.748V124.205C368.176 125.912 371.59 127.193 375.127 128.046C378.725 128.9 382.14 129.327 385.372 129.327C388.36 129.327 390.616 128.87 392.14 127.955C393.665 127.04 394.427 125.729 394.427 124.022C394.427 122.741 394 121.643 393.147 120.729C392.354 119.753 391.165 118.869 389.579 118.076C387.994 117.283 385.524 116.186 382.17 114.783C376.255 112.283 371.956 109.509 369.273 106.46C366.59 103.411 365.249 99.6604 365.249 95.209C365.249 91.5502 366.255 88.2878 368.267 85.4218C370.34 82.5558 373.206 80.33 376.865 78.7446C380.524 77.1591 384.731 76.3664 389.488 76.3664C393.391 76.3664 396.866 76.6713 399.915 77.281C402.964 77.8908 405.891 78.8665 408.696 80.2081V94.3857C403.33 91.5807 397.933 90.1782 392.506 90.1782C389.579 90.1782 387.232 90.666 385.463 91.6417C383.756 92.5564 382.902 93.8979 382.902 95.6663C382.902 97.4347 383.786 98.8677 385.555 99.9653C387.323 101.063 390.585 102.557 395.342 104.447C399.671 106.216 403.025 107.954 405.403 109.661C407.843 111.368 409.611 113.35 410.709 115.607C411.806 117.863 412.355 120.729 412.355 124.205C412.355 130.12 410.19 134.754 405.861 138.108C401.592 141.401 395.189 143.047 386.652 143.047Z" fill="#F1F1F1"/>
<path d="M447.418 143.047C437.784 143.047 430.527 140.486 425.649 135.364C420.77 130.181 418.331 123.351 418.331 114.875V77.7384H434.521V115.058C434.521 119.326 435.649 122.558 437.906 124.753C440.223 126.949 443.394 128.046 447.418 128.046C451.443 128.046 454.583 126.949 456.84 124.753C459.096 122.558 460.224 119.326 460.224 115.058V77.7384H476.414V114.875C476.414 123.412 473.975 130.242 469.097 135.364C464.279 140.486 457.053 143.047 447.418 143.047Z" fill="#F1F1F1"/>
<path d="M484.175 77.7384H500.365V128.046H528.171V141.675H484.175V77.7384Z" fill="#F1F1F1"/>
<path d="M537.938 91.3673H519.919V77.7384H572.239V91.3673H554.128V141.675H537.938V91.3673Z" fill="#F1F1F1"/>
<path d="M577.251 77.7384H593.441V141.675H577.251V77.7384Z" fill="#F1F1F1"/>
<path d="M601.637 77.7384H617.644L641.152 115.789V77.7384H657.342V141.675H641.426L617.827 103.533V141.675H601.637V77.7384Z" fill="#F1F1F1"/>
<path d="M698.614 143.047C691.663 143.047 685.534 141.706 680.229 139.023C674.985 136.339 670.93 132.498 668.064 127.497C665.198 122.436 663.764 116.521 663.764 109.753C663.764 102.984 665.198 97.0993 668.064 92.099C670.93 87.0377 674.985 83.1656 680.229 80.4825C685.534 77.7384 691.663 76.3664 698.614 76.3664C703.249 76.3664 707.334 76.8237 710.871 77.7384C714.469 78.5921 717.792 79.9946 720.841 81.946V97.3127C718.158 95.1785 715.109 93.654 711.694 92.7393C708.34 91.7636 704.468 91.2758 700.078 91.2758C696.297 91.2758 692.913 92.038 689.925 93.5625C686.998 95.026 684.68 97.1603 682.973 99.9653C681.266 102.77 680.412 106.033 680.412 109.753C680.412 115.546 682.089 120.119 685.443 123.473C688.857 126.827 693.461 128.504 699.254 128.504C702.486 128.504 705.2 127.955 707.395 126.857V116.613H697.608V105.271H722.762V137.102C716.237 141.065 708.188 143.047 698.614 143.047Z" fill="#F1F1F1"/>
</svg>


